<svg xmlns="http://www.w3.org/2000/svg" viewBox="0 0 581 618" width="581" height="618">
	<style>
		tspan { white-space:pre }
		.shp0 { fill: #d9b48e } 
		.shp1 { fill: #ddba95 } 
		.shp2 { fill: #bbb5bb } 
		.shp3 { fill: #e4c49b } 
		.shp4 { fill: #efce9d } 
		.shp5 { fill: #cb9e6e } 
		.shp6 { fill: #a2958d } 
		.shp7 { fill: #efeadf } 
		.shp8 { fill: #31e5ce } 
	</style>
	<g id="Capa 1">
		<path id="Path 0" class="shp0" d="M120 53.38C55.37 82.74 2.39 107.26 2.25 107.88C2.11 108.49 3.24 109.41 4.75 109.92C6.26 110.43 14.92 114.29 24 118.52C33.07 122.74 45.9 128.58 52.5 131.5C59.1 134.43 68.89 138.88 74.25 141.41C79.61 143.93 84.22 146 84.5 146C84.77 146 84.89 142.86 84.75 139.03C84.55 133.53 84.87 131.68 86.24 130.28C87.9 128.57 88.21 128.58 93.74 130.5C96.91 131.59 99.82 132.94 100.22 133.5C100.62 134.05 101.29 135.08 101.72 135.8C102.35 136.85 103.31 136.8 106.75 135.55C109.93 134.39 110.75 133.68 109.99 132.75C109.44 132.06 109.1 128.86 109.24 125.64C109.38 122.42 109.81 119.27 110.2 118.64C110.72 117.8 111.9 117.87 114.7 118.91C116.79 119.68 119.74 120.47 121.25 120.66L124 121C124 110.92 124.34 107.82 124.75 107.6C125.16 107.38 130 106.89 135.5 106.51C141 106.13 145.72 105.62 146 105.38C146.27 105.13 146.05 102.68 145.5 99.92C144.95 97.17 144.69 94.71 144.92 94.46C145.15 94.21 146.95 94.02 148.92 94.04C150.89 94.07 153.01 93.51 153.62 92.79C154.24 92.08 155.37 89.79 156.12 87.69C157.34 84.34 157.8 83.96 160 84.52C161.37 84.87 163.72 85.46 165.21 85.83C167.29 86.34 168.34 86 169.71 84.33C171.19 82.54 171.37 81.25 170.72 76.83C170.29 73.9 170.22 71.27 170.57 71C170.92 70.72 172.85 69.96 174.85 69.29C177.86 68.29 178.9 68.34 180.75 69.54C182.64 70.77 183.79 70.8 188.02 69.75L193.03 68.5C193 60.99 193.47 59.77 195 59C196.1 58.45 198.69 57.99 200.75 57.98C202.81 57.97 204.95 58.42 205.5 58.98C206.13 59.62 208.55 59.72 212 59.23L217.5 58.46L217 46C224.36 45.11 226.95 44.73 227.5 44.57C228.05 44.42 228.84 42.2 229.25 39.65C229.92 35.5 230.24 35.05 232.25 35.5C233.49 35.78 236.07 36.23 238 36.52C239.92 36.81 243.75 36.69 246.5 36.26C251.11 35.55 251.52 35.25 251.81 32.49C251.98 30.85 252.53 27.92 253.03 26C253.93 22.56 254.04 22.5 259.2 22.5C263.67 22.5 264.49 22.2 264.77 20.5C264.96 19.4 265.49 17.6 265.96 16.5C266.43 15.4 267.05 13.82 267.33 13C267.72 11.88 264.61 10.03 255.17 5.74C248.2 2.58 241.37 0 240 0C238.62 0.01 184.62 24.03 120 53.38Z" />
		<path id="Path 1" class="shp1" d="M267.02 13.75C267.03 14.71 266.61 15.95 266.1 16.5C265.59 17.05 265.02 18.62 264.83 20C264.53 22.31 264.1 22.5 259.22 22.5C254.03 22.5 253.93 22.56 253.03 26C252.53 27.92 251.98 30.85 251.81 32.49C251.52 35.25 251.11 35.55 246.5 36.26C243.75 36.69 239.92 36.81 238 36.52C236.07 36.23 233.49 35.78 232.25 35.5C230.24 35.05 229.92 35.5 229.25 39.65C228.84 42.2 228.05 44.42 227.5 44.57C226.95 44.73 224.36 45.11 221.75 45.43L217 46L217.5 58.46C208.55 59.72 206.13 59.62 205.5 58.98C204.95 58.42 202.81 57.97 200.75 57.98C198.69 57.99 196.1 58.45 195 59C193.47 59.77 193 60.99 193.02 64.25L193.03 68.5C183.79 70.8 182.64 70.77 180.75 69.54C178.9 68.34 177.86 68.29 174.85 69.29C172.85 69.96 170.92 70.72 170.57 71C170.22 71.27 170.29 73.9 170.72 76.83C171.37 81.25 171.19 82.54 169.71 84.33C168.34 86 167.29 86.34 165.21 85.83C163.72 85.46 161.37 84.87 160 84.52C157.8 83.96 157.34 84.34 156.12 87.69C155.37 89.79 154.24 92.08 153.62 92.79C153.01 93.51 150.89 94.07 148.92 94.04C146.95 94.02 145.15 94.21 144.92 94.46C144.69 94.71 144.95 97.17 145.5 99.92C146.05 102.68 146.27 105.13 146 105.38C145.72 105.62 141 106.13 135.5 106.51C130 106.89 125.16 107.38 124.75 107.6C124.34 107.82 124 110.92 124 114.5L124 121C119.74 120.47 116.79 119.68 114.7 118.91C111.37 117.68 110.79 117.69 110.06 119C109.59 119.82 109.16 123.09 109.11 126.25C109.02 130.88 109.34 132.12 110.75 132.63C111.82 133.02 116.2 131.47 122 128.67C127.22 126.15 135.77 122.23 141 119.95C146.22 117.68 152.75 114.78 155.5 113.51C158.25 112.24 168.37 107.6 178 103.21C187.62 98.81 207.99 89.54 223.25 82.61C238.51 75.67 251.22 70 251.5 70C251.77 70 258.19 67.13 265.75 63.61C273.31 60.1 285.12 54.67 292 51.54C298.87 48.41 308.45 43.97 313.28 41.67C318.11 39.38 321.89 37.05 321.68 36.5C321.47 35.95 309.64 30.23 295.4 23.79C281.15 17.34 268.94 12.06 268.25 12.04C267.56 12.02 267.01 12.79 267.02 13.75Z" />
		<path id="Path 2" class="shp2" d="M321.95 36.8C322.01 37.19 318.11 39.38 313.28 41.67C308.45 43.97 298.87 48.41 292 51.54C285.12 54.67 273.31 60.1 265.75 63.61C258.19 67.13 251.77 70 251.5 70C251.22 70 238.51 75.67 223.25 82.61C207.99 89.54 187.62 98.81 178 103.21C168.37 107.6 158.25 112.24 155.5 113.51C152.75 114.79 144.42 118.52 137 121.82C129.57 125.12 117.65 130.51 110.5 133.79C103.35 137.08 94.57 141.14 91 142.8L84.5 145.83C96.12 151.3 112.44 158.76 128.25 165.94L157 179C186.06 165.66 198.77 159.85 204 157.5C209.22 155.14 222.05 149.38 232.5 144.71C242.95 140.03 257.57 133.41 265 130C272.42 126.59 283.45 121.53 289.5 118.77C295.55 116.01 305.9 111.29 312.5 108.29C319.1 105.28 332.82 99.08 343 94.5C353.17 89.92 366.9 83.73 373.5 80.74C380.1 77.75 387.65 74.22 390.27 72.9C392.89 71.58 394.92 70.15 394.77 69.71C394.62 69.28 379.65 62.16 361.5 53.89C343.35 45.62 327 38.24 325.17 37.48C323.34 36.72 321.89 36.42 321.95 36.8Z" />
		<path id="Path 3" class="shp1" d="M387.27 74.3L379.03 78.5C383.17 83.44 384.42 83.88 389.75 84.17L395.99 84.5C396 73.26 395.89 70.02 395.75 70.05C395.61 70.08 391.79 71.99 387.27 74.3Z" />
		<path id="Path 4" class="shp3" d="M396.11 77.17L395.99 84.5C384.42 83.88 383.17 83.44 381.29 81.17C379.34 78.83 378.73 78.63 376.29 79.53C374.15 80.32 373.47 81.25 373.37 83.53C373.31 85.16 373.19 88.41 373.12 90.75L373 95C362.54 94 359.4 93.44 359.27 93.11C359.14 92.77 358.41 91.6 357.64 90.5C356.24 88.51 356.22 88.51 351.37 90.71C348.61 91.97 346.64 93.48 346.83 94.21C347.01 94.92 347.29 97.52 347.45 100C347.6 102.47 348.02 105.51 348.37 106.75C348.88 108.56 348.56 109.06 346.75 109.29C345.51 109.45 343.26 109.22 341.75 108.79C339.34 108.1 338.75 108.41 336.96 111.25C335.84 113.04 334.6 115.77 334.21 117.33C333.57 119.89 333.15 120.13 329.73 119.83C326.56 119.55 325.76 119.89 324.66 122C323.95 123.37 323.05 125.74 322.68 127.25C322.19 129.23 321.37 130 319.75 130.01C318.51 130.01 316.26 130.68 314.75 131.51C312.31 132.83 311.49 132.83 307.5 131.5C303.26 130.09 302.85 130.12 300.5 132C299.12 133.1 296.99 133.98 295.75 133.96C294.23 133.93 293.09 134.83 292.24 136.71C291.55 138.24 290.32 142.65 289.51 146.5C288.7 150.35 288.03 153.84 288.02 154.25C288.01 154.66 285.75 155.45 283 156C280.25 156.55 275.52 157 272.5 157L267 157C266.2 162.81 265.16 167.87 264.17 172L262.38 179.5L253.5 180.5C253.5 191.67 253.32 192.13 251 192.61C249.62 192.9 247.49 193.56 246.25 194.07C244.52 194.78 244 195.81 244 198.5C244 200.45 243.39 202.33 242.62 202.75C241.73 203.23 241.11 205.84 240.87 210.1C240.56 215.72 240.72 216.58 242 215.92C242.82 215.49 246.87 213.56 251 211.63C255.12 209.7 260.07 207.47 262 206.67C263.92 205.86 274.95 200.85 286.5 195.52C298.05 190.2 313.57 183.21 321 179.99C328.42 176.77 336.97 172.76 340 171.09C343.02 169.41 346.06 168.03 346.75 168.02C347.44 168.01 352.61 165.76 358.25 163.03C363.89 160.3 368.84 158.05 369.25 158.03C369.66 158.01 380.24 153.23 392.75 147.4C405.26 141.57 420.22 134.75 426 132.26C431.77 129.77 437.4 127.15 438.5 126.45C439.6 125.75 443.42 123.98 447 122.53C450.57 121.07 456.32 118.44 459.77 116.69C463.32 114.88 466.02 112.85 466 112C465.98 111.17 466.4 110.05 466.93 109.5C467.46 108.95 468.12 107.15 468.4 105.5L468.9 102.5C413.94 77.7 397.59 70.35 397.11 70.17C396.63 69.98 396.18 73.13 396.11 77.17Z" />
		<path id="Path 5" class="shp1" d="M364.93 84.6C360.84 86.56 357.38 88.24 357.22 88.33C357.07 88.42 357.52 89.71 358.22 91.19C359.38 93.63 360.11 93.92 366 94.29C369.57 94.51 372.6 94.65 372.71 94.6C372.83 94.54 373.05 91.72 373.21 88.33C373.37 84.94 373.24 81.91 372.93 81.6C372.62 81.29 369.02 82.64 364.93 84.6ZM331.46 99.66C323.78 103.21 314.57 107.4 311 108.97C307.42 110.54 297.97 114.83 290 118.52C282.02 122.2 270.1 127.68 263.5 130.7C256.9 133.72 243.62 139.71 234 144.01C224.37 148.3 210.42 154.59 203 157.97C195.57 161.36 182.39 167.36 173.71 171.31C165.02 175.27 157.93 178.72 157.95 179C157.97 179.27 159.22 180.01 160.74 180.64C162.26 181.27 174.3 186.72 187.5 192.75C200.7 198.77 217.69 206.47 225.25 209.85C232.81 213.23 239.45 215.77 240 215.5C240.55 215.22 241 212.3 241 209C241 204.56 241.39 202.87 242.5 202.5C243.45 202.18 244 200.72 244 198.5C244 195.81 244.52 194.78 246.25 194.07C247.49 193.56 249.62 192.9 251 192.61C253.32 192.13 253.5 191.67 253.5 186.3L253.5 180.5L262.38 179.5C265.16 167.87 266.2 162.81 266.48 160.75L267 157C275.52 157 280.25 156.55 283 156C285.75 155.45 288.01 154.66 288.02 154.25C288.03 153.84 288.7 150.35 289.51 146.5C290.32 142.65 291.55 138.24 292.24 136.71C293.09 134.83 294.23 133.93 295.75 133.96C296.99 133.98 299.12 133.1 300.5 132C302.85 130.12 303.26 130.09 307.5 131.5C311.49 132.83 312.31 132.83 314.75 131.51C316.26 130.68 318.51 130.01 319.75 130.01C321.37 130 322.19 129.23 322.68 127.25C323.05 125.74 323.95 123.37 324.66 122C325.76 119.89 326.56 119.55 329.73 119.83C333.15 120.13 333.57 119.89 334.21 117.33C334.6 115.77 335.84 113.04 336.96 111.25C338.75 108.41 339.34 108.1 341.75 108.79C343.26 109.22 345.51 109.45 346.75 109.29C348.56 109.06 348.88 108.56 348.37 106.75C348.02 105.51 347.57 102.25 347.38 99.5C347.18 96.75 346.66 94.21 346.22 93.85C345.78 93.5 339.14 96.11 331.46 99.66Z" />
		<path id="Path 6" class="shp4" d="M469.04 103.17C468.94 103.35 468.64 104.62 468.39 106C468.13 107.37 467.48 108.95 466.95 109.5C466.41 110.05 465.98 111.17 466 112C466.02 112.85 463.32 114.88 459.77 116.69C456.32 118.44 450.57 121.07 447 122.53C443.42 123.98 439.6 125.75 438.5 126.45C437.4 127.15 431.77 129.77 426 132.26C420.22 134.75 405.26 141.57 392.75 147.4C380.24 153.23 369.66 158.01 369.25 158.03C368.84 158.05 363.89 160.3 358.25 163.03C352.61 165.76 347.44 168.01 346.75 168.02C346.06 168.03 343.02 169.41 340 171.09C336.97 172.76 328.42 176.77 321 179.99C313.57 183.21 298.05 190.2 286.5 195.52C274.95 200.85 263.92 205.86 262 206.67C260.07 207.47 255.12 209.7 251 211.63C246.87 213.56 242.82 215.5 242 215.93C240.68 216.62 240.47 234.37 240.25 364.86L240 513C252.58 513 254.35 512.39 273.75 503.55L294.5 494.09C295.44 441 295.72 437.06 297.25 434.7C298.21 433.22 300.57 431.32 302.5 430.5C305.43 429.24 313.06 429 349.5 429L393 429C393.1 354.98 393.46 341.5 394.31 339.03C395.01 337 396.94 334.62 399 333.26C402.49 330.95 402.55 330.94 438 330.98C471.7 331.01 473.67 331.11 476.75 333L480 335L479.99 107.5C472.69 104.4 470.27 103.35 469.9 103.17C469.53 102.98 469.15 102.98 469.04 103.17Z" />
		<path id="Path 7" class="shp5" d="M1.23 259.19L1.5 410.36C48.77 431.85 67.34 440.32 73.25 443.05L84 448L84 146C68.89 138.88 59.1 134.42 52.5 131.49C45.9 128.56 33.97 123.15 26 119.47C18.02 115.79 9.13 111.71 6.23 110.4L0.95 108.02" />
		<path id="Path 8" class="shp1" d="M85.86 130.65C84.95 131.75 84.61 134.29 84.83 138.4C85.01 141.75 85.35 144.61 85.58 144.75C85.81 144.89 89.61 143.31 94.03 141.25C98.45 139.19 102.03 137.05 102 136.5C101.96 135.95 101.39 134.82 100.72 134C100.05 133.17 97.25 131.72 94.5 130.77C91.75 129.82 88.99 129.03 88.36 129.02C87.74 129.01 86.61 129.74 85.86 130.65Z" />
		<path id="Path 9" class="shp6" d="M84.11 296.64L83.92 447.5C139.01 472.69 155.45 480 156 480C156.66 480 156.92 429.28 156.75 329.34L156.5 178.69C127.82 165.64 112.07 158.48 103 154.36C93.92 150.24 86.01 146.63 85.41 146.33C84.62 145.94 84.26 187.87 84.11 296.64Z" />
		<path id="Path 10" class="shp5" d="M156.78 329.86L156.5 480.75C225.75 512.21 227.81 513 233.75 513L240 513L239.99 216.5C219.46 207.28 202.25 199.47 188.5 193.21C174.75 186.94 162.05 181.17 160.28 180.39L157.05 178.98" />
		<path id="Path 11" class="shp7" d="M327 195.75C322.87 197.71 308.7 204.23 295.5 210.24C282.3 216.24 267.78 222.81 263.24 224.83L254.98 228.5L255 298C259.55 296.06 277.76 287.85 298.41 278.5L335.95 261.5C335.99 207.64 335.66 192.04 335.25 192.09C334.84 192.13 331.12 193.78 327 195.75Z" />
		<path id="Path 12" class="shp8" d="M398.93 333.28C396.95 334.61 395 337.03 394.31 339.03C393.46 341.5 393.1 354.98 393.06 385.75L393 429C309.6 429 305.17 429.17 302 430.75C300 431.75 297.75 434 296.75 436C295.19 439.13 295 443.17 295 474.25C295 501.65 295.29 509.58 296.37 511.75C297.12 513.26 299.03 515.35 300.62 516.38C303.34 518.15 306.03 518.25 348.25 518.13L393 518C393 602.37 393.17 606.83 394.75 610C395.75 612 398 614.25 400 615.25C403.13 616.81 407.16 617 438 617C469.97 617.01 472.76 616.87 476 615.11C477.92 614.07 480.29 611.71 481.25 609.86C482.85 606.8 483.01 602.49 483 562.25L483 518C566.18 518.22 571.89 518.04 574.75 516.62C576.54 515.73 578.67 513.65 579.5 512C580.75 509.5 581 503.06 581 473.5C581 441.49 580.83 437.71 579.25 435.04C578.29 433.4 576.26 431.38 574.75 430.54C572.39 429.22 565.65 429 527.5 429L483 429C482.97 351.65 482.66 339.88 481.74 338.04C481.06 336.69 478.92 334.54 477 333.27C473.5 330.94 473.5 330.94 437.93 330.97C402.58 331 402.34 331.01 398.93 333.28Z" />
	</g>
</svg>