<svg xmlns="http://www.w3.org/2000/svg" viewBox="0 0 114 82" width="114" height="82">
	<style>
		tspan { white-space:pre }
		.shp0 { fill: #31e6cf } 
	</style>
	<path id="Path 0" fill-rule="evenodd" class="shp0" d="M74.5 1.22L80.79 8.5L113.5 9.5L113.76 44.5C113.98 73.12 113.78 79.68 112.67 80.5C111.78 81.15 92.06 81.33 0.5 80.5L0.34 46C0.26 27.02 0.37 10.94 0.59 10.25C0.82 9.56 2.57 9 4.5 9C6.94 9 8 8.55 8 7.5C8 6.33 9.33 6 14 6C18.67 6 20 6.33 20 7.5C20 8.65 21.29 9 25.58 9C30.77 9 31.44 8.72 35.03 5.05C38.81 1.19 39.08 1.08 46.7 0.8C50.99 0.63 59 0.66 74.5 1.22ZM93.93 25.07C93.97 25.58 94.67 26.67 95.5 27.5C96.32 28.32 97.56 28.84 98.25 28.65C98.94 28.45 99.95 27.55 100.5 26.65C101.17 25.55 101.17 24.45 100.5 23.35C99.95 22.45 99 21.53 98.39 21.31C97.77 21.09 96.5 21.64 95.56 22.53C94.63 23.42 93.89 24.56 93.93 25.07ZM43.08 28.75C40.64 30.81 37.84 34.3 36.85 36.5C35.86 38.7 35.03 42.86 35.02 45.75C35.01 48.64 35.61 52.46 36.35 54.25C37.09 56.04 38.82 58.85 40.19 60.5C41.55 62.15 44.77 64.51 47.34 65.75C50.26 67.16 53.86 68 57 68C59.75 68 63.69 67.3 65.75 66.45C67.81 65.59 70.78 63.68 72.34 62.2C73.9 60.71 76.14 57.7 77.3 55.5C78.76 52.74 79.43 49.62 79.46 45.42C79.49 40.38 78.99 38.52 76.5 34.47C74.75 31.62 71.63 28.44 69 26.79C66.18 25.04 62.63 23.82 59.5 23.54C56.75 23.3 52.92 23.53 51 24.05C49.07 24.58 45.51 26.69 43.08 28.75ZM59 28.59C60.92 28.91 64.03 29.92 65.9 30.83C67.77 31.75 70.08 33.62 71.04 35C72 36.37 73.27 39.3 73.85 41.5C74.48 43.84 74.59 46.95 74.13 49C73.69 50.92 72.81 53.51 72.16 54.75C71.52 55.99 69.34 58.24 67.31 59.75C64.68 61.71 62.17 62.59 58.56 62.83C54.67 63.08 52.46 62.6 49 60.73C45.85 59.04 43.82 56.98 42.23 53.9C40.98 51.48 39.97 47.81 39.98 45.75C39.99 43.69 40.62 40.54 41.37 38.75C42.13 36.96 43.81 34.49 45.12 33.25C46.43 32.02 49.3 30.33 51.5 29.51C53.84 28.64 56.95 28.26 59 28.59Z" />
</svg>