<svg xmlns="http://www.w3.org/2000/svg" viewBox="0 0 54 54" width="54" height="54">
	<style>
		tspan { white-space:pre }
		.shp0 { fill: #2cd6c0 } 
	</style>
	<path id="Path 0" class="shp0" d="M41.92 2.53L39.5 5.06L49.1 14.5C52.9 10.24 54 8.55 54 8C54 7.45 52.65 5.42 51 3.5C49.35 1.57 47.18 0 46.17 0C45.16 0 43.25 1.14 41.92 2.53ZM26.16 18.25L13.85 30.5C20.23 37.47 21.95 39.6 21.79 39.71C21.63 39.83 19.58 38.03 17.22 35.71C14.87 33.4 12.81 31.72 12.65 32C12.48 32.27 10.7 35.2 8.69 38.5C5.22 44.2 5.13 44.59 6.77 46.28C7.72 47.26 8.95 48.06 9.5 48.05C10.05 48.03 13.87 45.8 18 43.09C22.15 40.36 30.63 32.97 37 26.54L48.5 14.92C41.52 7.98 39.27 5.98 38.98 5.99C38.7 5.99 32.93 11.51 26.16 18.25ZM2.45 48.22C1.55 49.44 0.85 51.02 0.9 51.72C0.96 52.43 1.34 53 1.75 53.01C2.16 53.01 3.62 52.26 5 51.34C6.37 50.42 7.72 49.52 8 49.35C8.27 49.19 7.82 48.34 7 47.48C6.17 46.62 5.18 45.93 4.8 45.96C4.41 45.98 3.36 47 2.45 48.22Z" />
</svg>