<?xml version="1.0" standalone="yes"?>
<svg xmlns="http://www.w3.org/2000/svg" width="1080" height="1080">
<path style="fill:#c9ab89; stroke:none;" d="M97 242C108.046 249.43 121.911 253.773 134 259.309C159.965 271.198 186.144 282.659 212 294.78C222.606 299.752 233.322 304.492 244 309.306C248.109 311.158 253.36 314.635 258 314.408C262.484 314.189 267.019 311.131 271 309.309C278.979 305.655 286.957 301.933 295 298.424C327.545 284.226 359.717 269.091 392 254.309C500.789 204.496 610.875 157.234 719 106C714.859 102.261 709.069 100.396 704 98.1389C696.312 94.7151 688.652 91.1952 681 87.6913C653.715 75.1978 626.506 62.4257 599 50.4244C589.958 46.4795 580.932 42.4071 572 38.2198C567.808 36.2545 562.803 33.0394 558 33.3171C553.055 33.603 547.415 37.156 543 39.2554C534.405 43.3423 525.695 47.2666 517 51.1388C484.223 65.736 451.623 80.7538 419 95.6913C347.114 128.607 274.886 160.776 203 193.691C167.886 209.77 131.071 223.836 97 242z"/>
<path style="fill:#a6a3a7; stroke:none;" d="M258 315C267.819 322.933 283.41 327.368 295 332.424C317.147 342.087 338.852 352.762 361 362.424C369.043 365.933 377.021 369.655 385 373.309C388.919 375.103 393.544 378.288 398 378.232C406.221 378.128 416.643 370.686 424 367.309C444.608 357.848 465.327 348.625 486 339.306C559.436 306.2 632.567 272.41 706 239.306C742.693 222.764 779.106 205.52 816 189.424C826.058 185.036 835.962 180.298 846 175.86C850.564 173.842 856.181 172.304 859 168C847.988 164.828 837.469 158.523 827 153.861C803.95 143.596 780.942 133.196 758 122.691C750.01 119.033 741.935 115.518 734 111.745C729.943 109.816 724.56 106.289 720 106.108C715.943 105.947 711.603 109.008 708 110.576C698.28 114.805 688.547 119.134 679 123.742C650.692 137.402 621.656 149.776 593 162.694C520.248 195.492 447.56 228.467 375 261.691C349.366 273.429 323.635 284.953 298 296.691C284.72 302.772 270.886 308.13 258 315z"/>
<path style="fill:#c9ab89; stroke:none;" d="M399 378L399 380C414.053 385.126 428.543 393.072 443 399.691C466.62 410.507 490.269 421.293 514 431.861C522.354 435.581 530.742 439.328 539 443.255C545.015 446.115 551.428 449.828 558 451L558 1033C559.769 1028.78 559 1023.54 559 1019L559 993L559 900L559 578L559 490L559 465C559 461.449 558.156 456.54 559.603 453.213C561.006 449.989 565.047 448.866 568 447.576C575.064 444.489 581.955 440.996 589 437.861C616.371 425.68 644.025 413.759 671 400.742C702.295 385.639 734.406 372.158 766 357.691C808.932 338.033 851.856 318.353 895 299.139C936.32 280.738 976.833 259.36 1019 243L1019 241C981.96 225.599 945.326 208.25 909 191.22C898.06 186.091 886.939 181.348 876 176.22C871.442 174.083 865.128 169.779 860 169.781C855.918 169.782 851.645 172.986 848 174.576C838.273 178.819 828.647 183.274 819 187.691C787.058 202.317 754.766 216.224 723 231.219C663.119 259.485 602.34 286.03 542 313.306C509.648 327.93 477.278 342.529 445 357.309C429.749 364.292 414.644 371.931 399 378z"/>
<path style="fill:#dcbe91; stroke:none;" d="M1019 242C1006.35 249.198 992.23 254.252 979 260.309C953.367 272.044 927.622 283.545 902 295.309C831.131 327.845 760.233 360.416 689 392.139C657.895 405.991 627.022 420.328 596 434.371C587.319 438.301 578.617 442.151 570 446.219C566.928 447.669 562.073 448.723 560.028 451.638C557.907 454.661 559 460.5 559 464L559 493L559 605L559 1033C572.716 1029.05 586.027 1021.25 599 1015.31C623.957 1003.88 649.043 992.736 674 981.309C746.563 948.083 819.437 915.534 892 882.309C921.265 868.909 950.499 855.295 980 842.424C989.041 838.48 998.068 834.407 1007 830.22C1010.46 828.6 1015.8 827.233 1018.4 824.351C1020.75 821.743 1020 817.229 1020 814L1020 789L1020 688L1020 372L1020 281L1020 255C1020 250.74 1020.66 245.959 1019 242z"/>
<path style="fill:#b78f63; stroke:none;" d="M97 243L97 670L97 782L97 811C97 814.507 95.9103 820.331 98.0278 823.363C100.417 826.783 106.392 828.089 110 829.78C120.266 834.593 130.736 838.968 141 843.78C179.674 861.911 218.574 880.586 258 897L258 469L258 357L258 328C258 324.5 259.093 318.661 256.972 315.638C254.798 312.539 249.3 311.275 246 309.769C236.352 305.368 226.641 301.106 217 296.691C191.366 284.954 165.635 273.429 140 261.691C130.353 257.274 120.727 252.819 111 248.576C106.334 246.54 102.049 243.9 97 243z"/>
<path style="fill:#8f857f; stroke:none;" d="M258 316L258 743L258 855L258 884C258 887.508 256.911 893.33 259.028 896.363C261.237 899.527 266.623 900.951 270 902.424C278.717 906.228 287.346 910.283 296 914.231C316.641 923.647 337.373 932.864 358 942.309C370.973 948.249 384.284 956.05 398 960L398 534L398 421L398 392C398 388.383 399.066 382.585 396.972 379.418C395.058 376.524 390.015 375.194 387 373.78C378.068 369.593 369.041 365.52 360 361.576C337.198 351.628 314.62 341.049 292 330.691C280.987 325.649 269.698 319.199 258 316z"/>
<path style="fill:#b78f63; stroke:none;" d="M398 379L398 961C416.086 966.21 433.875 976.85 451 984.691C486.494 1000.94 521.888 1018.18 558 1033L558 451C543.247 446.75 529.03 438.109 515 431.861C476.042 414.511 437.756 394.424 398 379z"/>
<path style="fill:#ddd9d0; stroke:none;" d="M587 608C599.447 604.596 611.296 597.668 623 592.309C649.94 579.973 677.059 568.027 704 555.691C716.973 549.751 730.284 541.95 744 538L744 404C730.119 406.474 715.835 415.908 703 421.694C677.298 433.281 651.634 444.954 626 456.691C616.693 460.953 607.307 465.047 598 469.309C594.997 470.684 589.147 472.253 587.603 475.418C586.08 478.542 587 483.613 587 487L587 513L587 608z"/>
</svg>
