<svg xmlns="http://www.w3.org/2000/svg" viewBox="0 0 561 513" width="561" height="513">
	<style>
		tspan { white-space:pre }
		.shp0 { fill: #debb96 } 
		.shp1 { fill: #bab5bb } 
		.shp2 { fill: #edce9d } 
		.shp3 { fill: #d0a679 } 
		.shp4 { fill: #a3958d } 
		.shp5 { fill: #f0e9de } 
		.shp6 { fill: #33e4cd } 
	</style>
		<path id="Path 0" class="shp0" d="M120.19 53.82C55.12 83.35 2.01 107.95 2.17 108.5C2.33 109.05 8.99 112.48 16.98 116.12C24.97 119.76 41.17 127.12 53 132.48C64.82 137.85 76.64 143.31 79.25 144.62L84 147C96.4 140.8 100.22 139 100.5 139C100.77 139 104.94 137.15 109.75 134.89C114.56 132.63 132.67 124.36 150 116.5C167.32 108.64 193.42 96.81 208 90.21C222.57 83.61 242.37 74.61 252 70.23C261.62 65.84 278.95 57.96 290.5 52.72C302.05 47.48 314.2 41.95 317.5 40.43L323.5 37.66C317.3 35.02 298.51 26.55 277.75 17.13C256.99 7.71 239.66 0.03 239.25 0.07C238.84 0.11 185.26 24.3 120.19 53.82Z" />
		<path id="Path 1" class="shp1" d="M316 41.09C312.42 42.78 300.5 48.24 289.5 53.21C278.5 58.18 261.62 65.84 252 70.22C242.37 74.61 222.57 83.61 208 90.21C193.42 96.81 167.32 108.64 150 116.5C132.67 124.36 115.12 132.35 111 134.26C106.87 136.17 100.57 139.01 97 140.58C93.42 142.14 89.15 144.18 87.5 145.12C84.66 146.73 84.61 146.87 86.5 147.8C87.6 148.34 100.2 154.05 114.5 160.49C128.8 166.93 144.1 173.91 148.5 176L156.5 179.8C175.87 170.88 186.45 166.04 192.5 163.28C198.55 160.53 207.77 156.35 213 154C218.22 151.65 228.35 147.03 235.5 143.73C242.65 140.44 257.5 133.71 268.5 128.78C279.5 123.85 293.22 117.64 299 114.98C304.77 112.32 322.1 104.42 337.5 97.42C352.9 90.42 370.22 82.58 376 80C381.77 77.42 388.52 74.29 391 73.04C394.4 71.33 395.13 70.58 394 69.98C393.17 69.54 377.09 62.16 358.25 53.59C339.41 45.01 323.66 38 323.25 38C322.84 38 319.57 39.39 316 41.09Z" />
		<path id="Path 2" class="shp0" d="M391.5 72.72C389.85 73.62 383.32 76.68 377 79.53C370.67 82.38 352.9 90.43 337.5 97.43C322.1 104.42 304.77 112.32 299 114.98C293.22 117.64 279.5 123.85 268.5 128.78C257.5 133.71 242.65 140.44 235.5 143.73C228.35 147.03 218.22 151.65 213 154C207.77 156.35 198.55 160.53 192.5 163.28C186.45 166.04 175.99 170.82 169.26 173.9L157.03 179.5C168.24 184.76 176.22 188.42 182 191.03C187.77 193.63 201.5 199.85 212.5 204.85C223.5 209.85 234.19 214.85 236.25 215.97C238.31 217.09 240.16 217.66 240.37 217.25C240.57 216.84 246.31 214.07 253.12 211.11C259.93 208.14 271.8 202.69 279.5 198.99C287.2 195.29 294.62 191.92 296 191.5C297.37 191.08 303.56 188.32 309.75 185.37C315.94 182.42 321.22 180 321.5 180C321.77 180 325.71 178.25 330.25 176.11C334.79 173.97 343.45 169.97 349.5 167.22C355.55 164.47 365.9 159.73 372.5 156.69C379.1 153.64 386.97 150.18 390 149C393.02 147.81 397.52 145.78 400 144.47C402.47 143.17 407.42 140.91 411 139.46C414.57 138.01 419.3 135.8 421.5 134.54C423.7 133.28 426.62 131.92 428 131.5C429.37 131.09 434.55 128.82 439.5 126.46C444.45 124.1 454.76 119.32 462.41 115.83C470.06 112.35 476.47 109.05 476.65 108.5C476.84 107.95 458.88 99.29 436.74 89.25C414.61 79.21 396.05 71.02 395.5 71.04C394.95 71.06 393.15 71.82 391.5 72.72Z" />
		<path id="Path 3" class="shp2" d="M476.45 108.94C475.93 109.46 469.42 112.65 462 116.02C454.57 119.4 444.45 124.09 439.5 126.46C434.55 128.82 429.37 131.09 428 131.5C426.62 131.92 423.7 133.28 421.5 134.54C419.3 135.8 414.57 138.01 411 139.46C407.42 140.91 402.47 143.17 400 144.47C397.52 145.78 393.02 147.81 390 149C386.97 150.18 379.1 153.64 372.5 156.69C365.9 159.73 355.55 164.47 349.5 167.22C343.45 169.97 334.79 173.97 330.25 176.11C325.71 178.25 321.77 180 321.5 180C321.22 180 315.94 182.42 309.75 185.37C303.56 188.32 297.37 191.08 296 191.5C294.62 191.92 288.32 194.76 282 197.81C275.67 200.86 263.75 206.33 255.5 209.96L240.5 216.57L240 513C252.32 513.01 254.49 512.1 323 480.95C361.77 463.32 393.95 448.51 394.5 448.03C395.1 447.52 393.48 446.89 390.5 446.48C387.75 446.1 382.57 444.89 379 443.78C375.42 442.67 369.35 440.19 365.5 438.27C361.65 436.34 355.8 432.85 352.5 430.51C349.2 428.17 343.34 422.94 339.48 418.88C335.62 414.82 330.35 408.12 327.76 404C325.17 399.87 321.51 392.22 319.63 387C317.75 381.77 315.65 373.9 314.95 369.5C314.15 364.44 313.9 357.28 314.27 350C314.68 341.92 315.64 335.82 317.49 329.5C318.94 324.55 322.02 316.9 324.34 312.5C326.66 308.1 330.62 301.8 333.12 298.5C335.63 295.2 340.66 289.8 344.29 286.5C347.92 283.2 354.06 278.59 357.94 276.25C361.82 273.91 368.26 270.71 372.25 269.12C376.24 267.54 382.87 265.46 387 264.5C391.91 263.35 398.64 262.75 406.5 262.74C415.4 262.73 420.76 263.27 427.25 264.86C432.06 266.04 438.81 268.14 442.25 269.54C445.69 270.94 451.87 274.19 456 276.77C460.12 279.35 467.01 284.84 471.29 288.98L479.08 296.5C479.02 150.41 478.64 108 478.2 108C477.76 108 476.97 108.42 476.45 108.94Z" />
		<path id="Path 4" class="shp3" d="M0.57 110.53C0.26 111.34 0.01 178.71 0.02 260.25C0.02 341.79 0.36 408.99 0.77 409.59C1.17 410.19 18.6 418.46 39.5 427.96C60.4 437.47 78.96 445.86 80.75 446.62L84 448L84 147C76.64 143.3 64.37 137.64 52 132.03C39.62 126.42 24.55 119.56 18.5 116.79C12.45 114.02 6.07 111.14 4.32 110.4C1.59 109.24 1.06 109.26 0.57 110.53Z" />
		<path id="Path 5" class="shp4" d="M84.4 297.53L84.5 448.27C139.88 473.25 156.21 480.27 156.51 480C156.81 479.72 157.04 412.11 157.03 329.75L157 180C144.21 173.96 128.35 166.71 113.5 160C98.65 153.29 86.01 147.57 85.4 147.29C84.61 146.92 84.33 188.5 84.4 297.53Z" />
		<path id="Path 6" class="shp3" d="M156.76 330.49L156.5 480.99C225.7 512.41 227.24 513 233.5 513L240 513L239.5 217.5C234.07 214.75 223.5 209.86 212.5 204.87C201.5 199.87 188 193.77 182.5 191.31C177 188.84 169.24 185.29 165.25 183.41C161.26 181.54 157.78 180 157.51 180C157.23 180 156.9 247.72 156.76 330.49Z" />
		<path id="Path 7" class="shp5" d="M320.5 199.14C313.35 202.42 297.15 209.76 284.5 215.45C271.85 221.13 259.8 226.62 257.73 227.64L253.96 229.5C253.99 282.59 254.34 298 254.75 298.01C255.16 298.01 273.05 290.07 294.5 280.36C315.95 270.65 334.08 262.21 334.79 261.6C335.79 260.74 336.06 253.08 336.02 226.75C335.98 200.64 335.69 193.02 334.73 193.08C334.05 193.13 327.65 195.85 320.5 199.14Z" />
		<path id="Path 8" class="shp6" d="M398.5 262.64C396.3 262.86 391.12 263.75 387 264.63C382.87 265.51 376.24 267.53 372.25 269.12C368.26 270.7 361.82 273.91 357.94 276.25C354.06 278.59 347.92 283.2 344.29 286.5C340.66 289.8 335.63 295.2 333.12 298.5C330.62 301.8 326.66 308.1 324.34 312.5C322.02 316.9 318.94 324.55 317.49 329.5C315.64 335.82 314.68 341.92 314.27 350C313.9 357.28 314.15 364.44 314.95 369.5C315.65 373.9 317.75 381.77 319.63 387C321.51 392.22 325.17 399.87 327.76 404C330.35 408.12 335.62 414.82 339.48 418.88C343.34 422.94 349.2 428.17 352.5 430.51C355.8 432.85 361.65 436.35 365.5 438.27C369.35 440.2 375.65 442.72 379.5 443.88C383.35 445.03 390.55 446.67 395.5 447.53C401.53 448.57 406.98 448.87 412 448.44C416.12 448.08 422.54 447.16 426.25 446.4C429.96 445.63 436.49 443.65 440.75 441.99C445.01 440.33 451.65 437.09 455.5 434.78C459.35 432.47 466.04 427.19 470.38 423.04C474.71 418.89 480.19 412.8 482.56 409.5C484.92 406.2 488.67 399.67 490.89 395C493.1 390.32 495.9 382.9 497.12 378.5C498.94 371.89 499.33 367.89 499.33 355.5C499.33 343.52 498.92 338.99 497.28 333C496.16 328.87 494.06 322.57 492.62 319C491.17 315.42 488.53 310.04 486.74 307.04C484.96 304.03 479.67 297.57 475 292.68C470.32 287.79 462.9 281.39 458.5 278.46C454.1 275.53 447.8 271.92 444.5 270.45C441.2 268.98 434.45 266.75 429.5 265.5C424.55 264.25 416.45 263 411.5 262.74C406.55 262.47 400.7 262.43 398.5 262.64Z" />
		<path id="Path 9" class="shp2" d="M399.5 288.11C395.65 288.47 390.47 289.31 388 289.98C385.52 290.64 379.9 293.03 375.5 295.29C369.53 298.34 365.32 301.56 358.9 307.94C352 314.8 349.47 318.18 346.13 325C343.84 329.67 341.25 336.87 340.39 341C339.31 346.13 338.96 351.66 339.26 358.5C339.59 365.86 340.43 370.61 342.43 376.5C343.93 380.9 346.79 387.2 348.79 390.5C350.79 393.8 355.7 399.76 359.71 403.75C365.41 409.42 369.02 411.98 376.25 415.51C381.73 418.18 388.76 420.67 393.5 421.63C399.04 422.76 404.27 423.09 410.5 422.73C416.38 422.39 422.28 421.28 427.5 419.54C431.9 418.07 438.65 414.93 442.5 412.55C446.35 410.18 452.42 405.12 456 401.31C460.26 396.77 463.95 391.47 466.72 385.94C469.04 381.3 471.67 374.35 472.57 370.5C473.76 365.36 474.08 360.44 473.74 352C473.37 342.4 472.8 339.18 470.31 332.5C468.67 328.1 466.19 322.7 464.8 320.5C463.41 318.3 460.5 314.25 458.33 311.5C456.16 308.75 451.48 304.32 447.94 301.66C444.4 299 438.8 295.54 435.5 293.97C432.2 292.4 426.57 290.45 423 289.65C419.42 288.85 414.25 288.02 411.5 287.82C408.75 287.61 403.35 287.74 399.5 288.11Z" />
		<path id="Path 10" class="shp6" d="M497.07 428.35C495.19 428.98 491.64 431.3 489.19 433.5C486.74 435.7 483.78 439.3 482.63 441.5C481.01 444.59 480.53 447.31 480.53 453.5C480.53 459.77 481 462.37 482.68 465.5C483.86 467.7 492.85 477.42 502.66 487.11C516.12 500.39 521.48 505.04 524.5 506.03C526.7 506.75 531.2 507.32 534.5 507.3C538.69 507.27 541.98 506.54 545.42 504.88C548.13 503.57 552.1 500.47 554.24 498C556.64 495.23 558.73 491.39 559.69 488C560.61 484.76 561.04 480.65 560.73 478C560.45 475.52 559.08 471.25 557.69 468.5C555.97 465.1 549.93 458.31 538.83 447.31C527.83 436.41 521.03 430.46 518 429.09C514.85 427.66 511.55 427.07 507 427.12C503.42 427.17 498.96 427.72 497.07 428.35Z" />
</svg>