<svg xmlns="http://www.w3.org/2000/svg" viewBox="0 0 96 95" width="96" height="95">
	<style>
		tspan { white-space:pre }
		.shp0 { fill: #31e6cf } 
	</style>
	<path id="Path 0" fill-rule="evenodd" class="shp0" d="M38 0.33C43.7 0.57 47.03 1.35 51.88 3.58C55.74 5.34 59.93 8.28 62.47 11C64.78 13.47 67.59 17.3 68.72 19.5C69.85 21.7 71.32 26.2 71.99 29.5C72.66 32.8 72.92 37.75 72.58 40.5C72.24 43.25 70.68 48.2 69.12 51.5C67.38 55.2 64.32 59.32 61.15 62.25C58.32 64.86 53.86 68.01 51.25 69.25C47.31 71.12 44.8 71.5 36.5 71.5C27.72 71.5 25.83 71.18 21 68.84C17.61 67.2 13.46 63.94 10.18 60.34C6.98 56.83 4.02 52.3 2.76 49C1.28 45.11 0.69 41.31 0.73 36C0.77 31.01 1.48 26.66 2.84 23C3.97 19.97 6.83 15.3 9.2 12.61C11.56 9.93 15.52 6.57 18 5.16C20.47 3.74 24.3 2.01 26.5 1.3C28.79 0.57 33.71 0.15 38 0.33ZM16.26 20.75C14.47 23.09 12.5 26.91 11.89 29.25C11.28 31.59 11 35.75 11.27 38.5C11.54 41.25 12.65 45.3 13.74 47.5C14.83 49.7 17.7 53.21 20.11 55.29C22.55 57.4 26.73 59.74 29.5 60.55C32.25 61.36 35.4 62.02 36.5 62.02C37.6 62.02 40.86 61.34 43.75 60.51C46.92 59.6 50.64 57.52 53.16 55.25C55.44 53.19 58.36 49.25 59.65 46.5C61.2 43.17 61.98 39.67 61.98 36C61.98 32.34 61.2 28.83 59.65 25.5C58.37 22.75 55.68 19.04 53.66 17.25C51.65 15.46 48.31 13.31 46.25 12.48C44.19 11.64 39.8 10.95 36.5 10.96C31.95 10.97 29.17 11.64 25.01 13.73C21.71 15.39 18.21 18.2 16.26 20.75ZM74.75 63.01C75.44 63 77.46 63.62 79.25 64.37C81.04 65.12 85.54 68.95 89.25 72.87C94.94 78.88 96 80.55 96 83.5C96 85.42 95.44 88.18 94.75 89.62C94.06 91.06 92.26 92.86 90.75 93.62C89.24 94.38 86.54 94.99 84.75 94.98C82.03 94.96 80.17 93.63 73.27 86.73C65.4 78.85 65.04 78.31 65.05 74C65.06 71.52 65.62 68.72 66.31 67.77C66.99 66.82 68.89 65.36 70.53 64.53C72.16 63.69 74.06 63.01 74.75 63.01Z" />
</svg>