<svg xmlns="http://www.w3.org/2000/svg" viewBox="0 0 580 544" width="580" height="544">
	<style>
		tspan { white-space:pre }
		.shp0 { fill: #debb96 } 
		.shp1 { fill: #bab5bb } 
		.shp2 { fill: #edcd9c } 
		.shp3 { fill: #d1a77b } 
		.shp4 { fill: #a2958d } 
		.shp5 { fill: #f0eadf } 
		.shp6 { fill: #32e5ce } 
	</style>
	<g id="Capa 1">
		<path id="Path 0" class="shp0" d="M119 54.38C54.37 83.74 1.4 108.15 1.29 108.63C1.17 109.11 7.24 112.3 14.79 115.72C22.33 119.14 40.76 127.57 55.75 134.47L83 147C112.06 133.67 123.42 128.43 127 126.77C130.57 125.1 137.32 122.05 142 119.99C146.67 117.93 168.05 108.27 189.5 98.52C210.95 88.77 247.62 72.11 271 61.49C294.37 50.87 315.41 41.47 317.75 40.59C320.09 39.72 322.01 38.66 322.02 38.25C322.03 37.84 303.92 29.28 281.77 19.23C259.62 9.18 240.37 0.97 239 0.99C237.62 1 183.62 25.03 119 54.38Z" />
		<path id="Path 1" class="shp1" d="M318 40.21C315.52 41.33 294.37 50.92 271 61.52C247.62 72.13 208.47 89.9 184 101.01C159.52 112.13 138.6 121.57 137.5 121.99C136.4 122.42 131.22 124.77 126 127.21C120.77 129.66 109.11 134.96 100.07 139C91.03 143.04 83.73 146.61 83.84 146.92C83.95 147.24 90.44 150.37 98.27 153.88C106.1 157.39 117.22 162.4 123 165C128.77 167.61 138.56 172.05 144.75 174.87L156 180C215.29 153.06 242.17 140.85 254 135.48C265.82 130.12 280.9 123.27 287.5 120.26C294.1 117.25 303.77 112.87 309 110.53C314.22 108.18 333.8 99.32 352.5 90.83C371.2 82.34 388.43 74.51 390.78 73.44C393.14 72.37 395.04 71.27 395.02 71C395 70.72 379.34 63.43 360.24 54.78C341.13 46.14 324.82 38.86 324 38.62C323.17 38.37 320.47 39.09 318 40.21Z" />
		<path id="Path 2" class="shp0" d="M391.5 73.05C389.3 74.1 371.97 82.01 353 90.62C334.02 99.22 314.22 108.19 309 110.53C303.77 112.88 294.55 117.05 288.5 119.8C282.45 122.54 266.47 129.8 253 135.93C239.52 142.05 212.44 154.36 192.81 163.28C173.17 172.2 157.42 179.83 157.81 180.24C158.19 180.64 175.15 188.55 195.5 197.8C215.85 207.05 233.85 215.21 235.5 215.93C238.29 217.15 239.38 216.87 251 212.04C257.87 209.19 268.9 204.38 275.5 201.36C282.1 198.34 290.65 194.34 294.5 192.48C298.35 190.61 303.97 188.13 307 186.95C310.02 185.78 315.42 183.32 319 181.48C322.57 179.65 328.42 176.94 332 175.45C335.57 173.96 339.4 172.16 340.5 171.44C341.6 170.73 346.1 168.73 350.5 167C354.9 165.27 360.07 162.94 362 161.82C363.92 160.71 370.9 157.54 377.5 154.8C384.1 152.06 393.1 148.11 397.5 146.02C401.9 143.94 408.87 140.64 413 138.7C417.12 136.75 424.55 133.37 429.5 131.18C434.45 129 445.02 124.23 453 120.58C460.97 116.94 469.52 112.96 472 111.73C474.47 110.5 476.48 109.05 476.46 108.5C476.43 107.95 458.57 99.29 436.75 89.25C414.94 79.21 396.74 71.03 396.3 71.06C395.86 71.1 393.7 71.99 391.5 73.05Z" />
		<path id="Path 3" class="shp2" d="M476.55 109C476.25 109.55 472.96 111.4 469.25 113.11C465.54 114.83 457.55 118.48 451.5 121.24C445.45 124 435.77 128.38 430 130.98C424.22 133.57 416.35 137.16 412.5 138.94C408.65 140.72 401.9 143.89 397.5 145.99C393.1 148.09 384.1 152.06 377.5 154.8C370.9 157.54 363.92 160.71 362 161.82C360.07 162.94 354.9 165.27 350.5 167C346.1 168.73 341.6 170.73 340.5 171.44C339.4 172.16 335.57 173.96 332 175.45C328.42 176.94 322.57 179.65 319 181.48C315.42 183.32 310.02 185.78 307 186.95C303.97 188.13 298.35 190.61 294.5 192.48C290.65 194.34 282.1 198.34 275.5 201.36C268.9 204.38 257.99 209.13 251.25 211.92L239 217L239 514C251.76 514 253.26 513.43 285.41 498.75C310.18 487.45 318.47 483.24 317.45 482.5C316.69 481.95 312.96 474.52 309.15 466C305.35 457.47 300.83 447.46 299.12 443.75C297.4 440.04 296 436.55 296 436C296 435.45 301.51 431.33 308.25 426.84C314.99 422.35 320.82 418.19 321.21 417.59C321.59 416.99 321.68 411.32 321.39 405C321.11 398.67 320.69 392.6 320.47 391.5C320.19 390.14 315.88 387.17 307.03 382.25C299.34 377.97 294 374.39 294 373.5C294 372.67 297.65 362.44 302.1 350.75C306.56 339.06 310.61 328.71 311.1 327.75C311.6 326.79 313.01 326 314.25 326C315.49 326 322.48 327.24 329.79 328.75L343.09 331.5C356.58 316.94 360.81 312.21 361.19 311.61C361.57 311 360.12 303.97 357.98 296C354.92 284.64 354.33 281.24 355.29 280.3C355.95 279.65 366.51 274.58 378.75 269.05C390.99 263.52 401.34 259.17 401.75 259.38C402.16 259.59 406.32 265.45 411 272.39L419.5 285.02C439.65 284.57 446.06 284.12 446.75 283.72C447.44 283.32 451.15 277.37 455 270.5C458.85 263.62 462.56 257.77 463.25 257.48C463.94 257.19 467.31 258.09 470.75 259.48C474.19 260.87 477.45 262 478 262C478.66 262 479 235.67 479 185C479 136.97 478.64 108 478.05 108C477.53 108 476.85 108.45 476.55 109Z" />
		<path id="Path 4" class="shp3" d="M0.27 260.17L0.5 411.36C13.67 417.13 19.75 419.62 22.5 420.63C25.25 421.64 27.95 422.93 28.5 423.5C29.05 424.08 37.15 428.03 46.5 432.29C55.85 436.54 64.17 440 65 439.98C65.82 439.95 67.62 440.77 69 441.8C70.37 442.84 74.09 444.88 77.25 446.34L83 449L82.5 146.68C40.65 127.51 23.55 119.65 17.5 116.85C11.45 114.05 5.05 111.13 3.27 110.36L0.03 108.97" />
		<path id="Path 5" class="shp4" d="M82.92 297.77L82.92 448.5C138.01 473.69 154.45 481 155 481C155.66 481 155.92 430.29 155.75 330.38L155.5 179.76C133.8 169.79 125.02 165.84 122 164.55C118.97 163.26 109.97 159.19 102 155.51C94.02 151.83 86.47 148.42 85.21 147.93L82.93 147.05" />
		<path id="Path 6" class="shp3" d="M155.91 330.88L155.5 481.97C164.02 485.23 170.55 488.18 175.5 490.63C180.45 493.07 185.4 495.22 186.5 495.41C187.6 495.59 191.87 497.59 196 499.85C200.12 502.11 204.29 503.97 205.25 503.98C206.21 503.99 211.72 506.25 217.5 509C226.15 513.12 228.97 514 233.5 514L239 514L239.08 217.5C233.98 215.26 215.85 207.03 195.5 197.75C175.15 188.47 158.01 180.64 157.41 180.34C156.63 179.95 156.21 222.54 155.91 330.88Z" />
		<path id="Path 7" class="shp5" d="M333 193.74C332.17 194.06 315.3 201.73 295.5 210.78C275.7 219.82 258.26 227.74 256.74 228.36L253.98 229.5L254 299C260.59 296.08 277.8 288.28 296.5 279.77C315.2 271.27 331.51 264.01 332.75 263.65L335 263C335 208.75 334.89 193.04 334.75 193.08C334.61 193.12 333.82 193.42 333 193.74Z" />
		<path id="Path 8" fill-rule="evenodd" class="shp6" d="M463.76 257C464.17 257.01 467.42 258.1 471 259.43C474.57 260.76 484.7 264.44 493.5 267.6C502.3 270.76 510.17 273.95 511 274.69C512.33 275.88 512.17 277.67 509.64 290.27C508.07 298.1 507.03 305.4 507.34 306.5C507.65 307.6 509.78 309.85 512.09 311.5C514.4 313.15 518.25 316.64 520.64 319.25C523.06 321.88 525.89 324 527 324C528.1 324 535.19 322.38 542.75 320.41C550.31 318.43 556.84 317.2 557.25 317.66C557.67 318.12 562.51 328.4 568.01 340.5C573.51 352.6 578.01 363.29 578 364.25C578 365.38 573.63 368.9 565.75 374.14C559.01 378.62 553.27 382.48 553 382.73C552.72 382.97 552.63 388.87 552.8 395.83C553.07 407.41 553.29 408.67 555.3 410.5C556.51 411.61 562.56 415.32 568.75 418.75C577.91 423.84 580 425.42 579.99 427.25C579.99 428.49 576.16 439.62 571.48 452C566.81 464.37 562.42 474.78 561.74 475.12C561.06 475.46 553.89 474.34 531.14 469.5L522.32 478.89C517.47 484.06 513.36 488.78 513.18 489.39C513 490 514.46 496.57 516.41 504C518.37 511.42 519.99 518.17 520.02 519C520.05 520 512.22 524.08 496.29 531.33C476.74 540.24 472.28 541.93 471.28 540.83C470.61 540.1 466.56 534.32 454.5 516.5L441.5 516.49C431.22 516.48 428.18 516.79 426.99 517.99C426.16 518.82 422.71 524.45 419.32 530.5C415.94 536.55 412.46 542.06 411.59 542.75C410.27 543.79 406.01 542.52 386.39 535.25C372.65 530.16 362.54 525.87 362.21 525C361.91 524.17 362.97 516.87 367.5 494.05L358.1 485.28C352.93 480.45 348.43 476.36 348.1 476.18C347.77 476.01 341.54 477.47 334.25 479.43C326.96 481.39 320.1 483 319 483C317.56 483 316.32 481.52 314.57 477.75C313.23 474.86 308.51 464.51 304.07 454.75C299.63 444.99 296 436.55 296 436C296 435.45 301.51 431.33 308.25 426.84C314.99 422.35 320.82 418.19 321.21 417.59C321.59 416.99 321.68 411.32 321.39 405C321.11 398.67 320.69 392.6 320.47 391.5C320.19 390.14 315.88 387.17 307.03 382.25C299.34 377.97 294 374.39 294 373.5C294 372.67 297.65 362.44 302.1 350.75C306.56 339.06 310.61 328.71 311.1 327.75C311.6 326.79 313.01 326 314.25 326C315.49 326 322.48 327.24 343.09 331.5L351.79 322.11C356.58 316.94 360.81 312.21 361.19 311.61C361.57 311 360.12 303.97 357.98 296C354.92 284.64 354.33 281.24 355.29 280.3C355.95 279.65 366.51 274.58 378.75 269.05C390.99 263.52 401.34 259.17 401.75 259.38C402.16 259.59 406.32 265.45 419.5 285.02L432.5 284.73C439.65 284.57 446.06 284.12 446.75 283.72C447.44 283.32 450.33 278.84 453.18 273.75C456.03 268.66 459.41 262.81 460.69 260.75C461.97 258.69 463.35 257 463.76 257ZM478.5 411.1C413.4 440.63 394.39 449.39 394.25 449.6C394.11 449.82 396.81 451.89 400.25 454.21C403.69 456.52 409.65 459.63 413.5 461.13C417.35 462.62 424.32 464.35 429 464.97C435.2 465.8 439.53 465.81 445 465.01C449.12 464.41 455.42 462.91 459 461.67C462.57 460.44 468.65 457.36 472.5 454.84C476.35 452.32 482.12 447.38 485.32 443.88C488.76 440.12 492.75 434.22 495.06 429.5C497.22 425.1 499.66 418.8 500.5 415.5C501.33 412.2 502 405.45 501.99 400.5C501.98 395.55 501.28 388.57 500.44 385C499.6 381.42 497.36 375.35 495.46 371.5C493.56 367.65 489.82 361.8 487.14 358.5C484.47 355.2 481.53 352.18 480.61 351.79C479.07 351.13 478.92 353.48 478.72 381.09L478.5 411.1Z" />
		<path id="Path 9" class="shp2" d="M425.5 335.48C421.65 336.2 416.02 337.71 413 338.85C409.97 339.99 404.8 342.67 401.5 344.81C398.2 346.95 393.02 351.24 390 354.35C386.97 357.45 382.8 362.81 380.72 366.25C378.64 369.69 376.05 374.86 374.97 377.75C373.89 380.64 372.49 386.26 371.88 390.25C371.26 394.24 371.01 400.87 371.33 405C371.65 409.12 372.86 415.65 374.03 419.5C375.2 423.35 377.88 429.42 379.98 433C382.08 436.57 385.64 441.64 387.9 444.25C390.15 446.86 392.67 449 393.5 449C394.32 449 413.79 440.47 436.75 430.05L478.5 411.1L479 349C469.31 342.72 464.02 339.97 461 338.84C457.97 337.71 452.12 336.18 448 335.43C443.87 334.68 438.7 334.09 436.5 334.13C434.3 334.16 429.35 334.77 425.5 335.48Z" />
	</g>
</svg>